<svg width="360" height="100" viewBox="0 0 360 100" fill="none" xmlns="http://www.w3.org/2000/svg">
<path d="M0 0H360V100H0V0Z" fill="#3056D3"/>
<path d="M189 66.2934H198.589C204.013 66.2934 206.674 63.529 206.674 59.8392C206.674 56.2536 204.129 54.1485 201.608 54.0212V53.7899C203.921 53.2463 205.748 51.627 205.748 48.7469C205.748 45.2191 203.204 42.6051 198.068 42.6051H189V66.2934ZM193.291 62.7077V55.7678H198.022C200.671 55.7678 202.313 57.3871 202.313 59.5038C202.313 61.3891 201.018 62.7077 197.906 62.7077H193.291ZM193.291 52.6795V46.1444H197.629C200.15 46.1444 201.457 47.4746 201.457 49.3021C201.457 51.3841 199.768 52.6795 197.536 52.6795H193.291Z" fill="white"/>
<path d="M221.545 58.8214C221.545 61.5279 219.614 62.8697 217.763 62.8697C215.751 62.8697 214.409 61.447 214.409 59.1915V48.5271H210.222V59.8392C210.222 64.1073 212.651 66.5247 216.144 66.5247C218.804 66.5247 220.678 65.1251 221.488 63.1357H221.673V66.2934H225.733V48.5271H221.545V58.8214Z" fill="white"/>
<path d="M244.08 53.2232C243.502 50.2158 241.096 48.2958 236.932 48.2958C232.652 48.2958 229.737 50.4009 229.749 53.6858C229.737 56.2767 231.334 57.9886 234.746 58.6941L237.776 59.3303C239.407 59.6889 240.17 60.3481 240.17 61.3544C240.17 62.5689 238.852 63.4827 236.862 63.4827C234.942 63.4827 233.693 62.6499 233.335 61.0537L229.252 61.447C229.772 64.7087 232.513 66.6404 236.874 66.6404C241.316 66.6404 244.45 64.3386 244.462 60.9727C244.45 58.4397 242.819 56.8897 239.465 56.1611L236.434 55.5133C234.63 55.1085 233.913 54.4839 233.925 53.4545C233.913 52.2516 235.243 51.4188 236.99 51.4188C238.921 51.4188 239.939 52.4713 240.263 53.6395L244.08 53.2232Z" fill="white"/>
<path d="M247.914 66.2934H252.101V48.5271H247.914V66.2934ZM250.019 46.0056C251.35 46.0056 252.437 44.9878 252.437 43.7386C252.437 42.4778 251.35 41.46 250.019 41.46C248.678 41.46 247.59 42.4778 247.59 43.7386C247.59 44.9878 248.678 46.0056 250.019 46.0056Z" fill="white"/>
<path d="M260.594 55.8835C260.594 53.3157 262.144 51.8352 264.353 51.8352C266.516 51.8352 267.812 53.2578 267.812 55.629V66.2934H271.999V54.9813C272.01 50.7248 269.581 48.2958 265.915 48.2958C263.254 48.2958 261.427 49.5681 260.617 51.546H260.409V48.5271H256.407V66.2934H260.594V55.8835Z" fill="white"/>
<path d="M284.121 66.6404C288.261 66.6404 291.107 64.6162 291.847 61.5279L287.937 61.0884C287.371 62.5921 285.983 63.3786 284.178 63.3786C281.472 63.3786 279.679 61.5973 279.644 58.5553H292.02V57.2714C292.02 51.0371 288.273 48.2958 283.901 48.2958C278.811 48.2958 275.492 52.0318 275.492 57.5143C275.492 63.0894 278.765 66.6404 284.121 66.6404ZM279.656 55.7331C279.783 53.466 281.46 51.5576 283.959 51.5576C286.364 51.5576 287.984 53.3157 288.007 55.7331H279.656Z" fill="white"/>
<path d="M309.605 53.2232C309.026 50.2158 306.62 48.2958 302.456 48.2958C298.177 48.2958 295.262 50.4009 295.274 53.6858C295.262 56.2767 296.858 57.9886 300.27 58.6941L303.301 59.3303C304.932 59.6889 305.695 60.3481 305.695 61.3544C305.695 62.5689 304.376 63.4827 302.387 63.4827C300.467 63.4827 299.218 62.6499 298.859 61.0537L294.776 61.447C295.297 64.7087 298.038 66.6404 302.399 66.6404C306.84 66.6404 309.975 64.3386 309.986 60.9727C309.975 58.4397 308.344 56.8897 304.989 56.1611L301.959 55.5133C300.155 55.1085 299.438 54.4839 299.449 53.4545C299.438 52.2516 300.768 51.4188 302.514 51.4188C304.446 51.4188 305.464 52.4713 305.788 53.6395L309.605 53.2232Z" fill="white"/>
<path d="M327.481 53.2232C326.902 50.2158 324.496 48.2958 320.333 48.2958C316.053 48.2958 313.138 50.4009 313.15 53.6858C313.138 56.2767 314.734 57.9886 318.146 58.6941L321.177 59.3303C322.808 59.6889 323.571 60.3481 323.571 61.3544C323.571 62.5689 322.253 63.4827 320.263 63.4827C318.343 63.4827 317.094 62.6499 316.735 61.0537L312.652 61.447C313.173 64.7087 315.914 66.6404 320.275 66.6404C324.716 66.6404 327.851 64.3386 327.862 60.9727C327.851 58.4397 326.22 56.8897 322.866 56.1611L319.835 55.5133C318.031 55.1085 317.314 54.4839 317.325 53.4545C317.314 52.2516 318.644 51.4188 320.39 51.4188C322.322 51.4188 323.34 52.4713 323.664 53.6395L327.481 53.2232Z" fill="white"/>
<path d="M160.667 42.6667H166.167C169.204 42.6667 171.667 45.1292 171.667 48.1667V68.3334H160.667V42.6667Z" fill="white"/>
<path d="M142.333 41.461C142.333 38.9372 144.051 36.7373 146.499 36.1252L157.499 33.3752C160.971 32.5074 164.333 35.1328 164.333 38.711V68.3334H142.333V41.461Z" fill="#98AAE9"/>
<path fill-rule="evenodd" clip-rule="evenodd" d="M149.667 59.1666C149.667 58.154 150.487 57.3333 151.5 57.3333H155.167C156.179 57.3333 157 58.154 157 59.1666C157 60.1791 156.179 60.9999 155.167 60.9999H151.5C150.487 60.9999 149.667 60.1791 149.667 59.1666Z" fill="white"/>
<path fill-rule="evenodd" clip-rule="evenodd" d="M149.667 51.8333C149.667 50.8208 150.487 50 151.5 50H155.167C156.179 50 157 50.8208 157 51.8333C157 52.8459 156.179 53.6667 155.167 53.6667H151.5C150.487 53.6667 149.667 52.8459 149.667 51.8333Z" fill="white"/>
<path fill-rule="evenodd" clip-rule="evenodd" d="M149.667 44.5001C149.667 43.4876 150.487 42.6667 151.5 42.6667H155.167C156.179 42.6667 157 43.4876 157 44.5001C157 45.5126 156.179 46.3334 155.167 46.3334H151.5C150.487 46.3334 149.667 45.5126 149.667 44.5001Z" fill="white"/>
<path fill-rule="evenodd" clip-rule="evenodd" d="M138.667 66.5001C138.667 65.4875 139.487 64.6667 140.5 64.6667H173.5C174.513 64.6667 175.333 65.4875 175.333 66.5001C175.333 67.5126 174.513 68.3334 173.5 68.3334H140.5C139.487 68.3334 138.667 67.5126 138.667 66.5001Z" fill="#98AAE9"/>
</svg>
